<svg xmlns="http://www.w3.org/2000/svg" xmlns:xlink="http://www.w3.org/1999/xlink" viewBox="0,0,256,256" width="50px" height="50px" fill-rule="nonzero"><g fill="#ffffff" fill-rule="nonzero" stroke="none" stroke-width="1" stroke-linecap="butt" stroke-linejoin="miter" stroke-miterlimit="10" stroke-dasharray="" stroke-dashoffset="0" font-family="none" font-weight="none" font-size="none" text-anchor="none" style="mix-blend-mode: normal"><g transform="scale(5.12,5.12)"><path d="M40.125,4.5c-0.47656,0.08984 -0.82031,0.51172 -0.8125,1c0,0 -0.02344,1.54297 -0.3125,4.0625c-0.00391,0.01953 0.00391,0.01172 0,0.03125c-0.30859,2.26172 0.75391,4.07813 1.53125,5.0625c-0.16016,-0.15234 -0.3125,-0.26172 -0.46875,-0.34375c-2.75,-5.48047 -8.36719,-9.3125 -15.0625,-9.3125c-6.70703,0 -12.42578,3.83594 -15.125,9.375c-0.19141,0.14453 -0.37109,0.30469 -0.53125,0.5c-0.76953,0.92188 -1.02344,2.10938 -1.1875,3.21875c-0.08203,0.55469 -0.11719,1.09375 -0.125,1.53125c-0.00391,0.13672 0.02344,0.25391 0.03125,0.375c-3.11719,2.125 -5.0625,5.14453 -5.0625,8.3125c0,2.5625 1.20313,4.86328 3.15625,6.75c1.89063,1.82422 4.50781,3.26563 7.53125,4.34375c2.5,3.40625 6.53516,5.59375 11.3125,5.59375c4.61328,0 8.79688,-2.26562 11.3125,-5.6875c3.01953,-1.03125 5.64453,-2.46094 7.53125,-4.28125c1.95313,-1.88672 3.15625,-4.19922 3.15625,-6.71875c0,-2.84375 -1.53516,-5.30078 -3.8125,-7.3125c0.30469,0 0.58984,-0.13672 0.78125,-0.375c0,0 0.6875,-0.73437 0.9375,-1.84375c0.89453,-0.51172 3.16797,-2.09375 3.96875,-5.5625c1.03906,-4.38672 -2.40625,-7.46875 -2.40625,-7.46875c-0.22656,-0.21094 -0.53906,-0.30078 -0.84375,-0.25c-0.26953,0.05078 -0.50781,0.20703 -0.65625,0.4375c0,0 -0.31641,0.48047 -0.6875,1.125c-1.57031,-1.83203 -3.65625,-2.5 -3.65625,-2.5c-0.12891,-0.04687 -0.26953,-0.07031 -0.40625,-0.0625c-0.03125,0 -0.0625,0 -0.09375,0zM25,7c5.18359,0 9.59766,2.56641 12.25,6.4375c-0.01172,-0.00391 -0.01953,0.00391 -0.03125,0c-1.49609,-0.3125 -3.25781,-0.53125 -4.8125,-0.53125c-1.65625,0 -3.05078,0.51563 -4.25,0.96875c-1.19922,0.45313 -2.20703,0.8125 -3.15625,0.8125c-0.96484,0 -1.95312,-0.35156 -3.125,-0.78125c-1.17187,-0.42969 -2.54297,-0.90625 -4.1875,-0.90625c-1.48437,0 -3.16016,0.07422 -4.65625,0.3125c-0.07422,0.01172 -0.14453,0.01953 -0.21875,0.03125c2.64453,-3.8125 7.0625,-6.34375 12.1875,-6.34375zM41.1875,7.125c1.03516,0.59375 2.33594,1.58203 2.71875,3.65625c0.34375,1.84766 -0.18359,3.06641 -0.78125,3.96875c-0.04687,-0.11328 -0.0625,-0.1875 -0.125,-0.3125c-0.05859,-0.09375 -0.13281,-0.17969 -0.21875,-0.25c0,0 -2.08594,-2.19922 -1.78125,-4.34375c0,-0.01172 0,-0.01953 0,-0.03125c0.19141,-1.64844 0.16016,-1.96484 0.1875,-2.6875zM45.9375,8.3125c0.69922,0.92969 1.5,2.35156 1,4.46875c-0.46484,2.01953 -1.45312,3.16406 -2.21875,3.78125c-0.03906,-0.09375 -0.08203,-0.16797 -0.125,-0.25c0.91797,-1.26172 1.76563,-3.28516 1.28125,-5.90625c-0.08984,-0.48437 -0.24219,-0.92969 -0.40625,-1.34375c0.14453,-0.28125 0.28125,-0.42969 0.46875,-0.75zM32.40625,14.90625c1.34766,0 3.02734,0.21094 4.40625,0.5c0.6875,0.14453 1.30078,0.31641 1.75,0.46875c0.06641,0.02344 0.09766,0.03906 0.15625,0.0625c0.14453,0.14453 0.32813,0.24609 0.53125,0.28125c0.04297,0.09375 0.08984,0.22656 0.1875,0.5c0.12891,0.36328 0.25,0.80078 0.34375,1.25c0.09375,0.44922 0.16797,0.91797 0.1875,1.25c0.01172,0.16797 -0.01953,0.32422 -0.03125,0.40625c-0.02734,0.02734 -0.30859,0.40234 -0.78125,0.75c-0.50781,0.37109 -1.16016,0.76172 -1.8125,1.125c-0.98828,0.55078 -1.78125,0.90625 -2.1875,1.09375c-0.21484,-0.23437 -0.42578,-0.47266 -0.65625,-0.6875c1.52344,-0.47656 2.59375,-1.3125 2.59375,-1.3125c0.38281,-0.29297 0.5,-0.82031 0.28125,-1.25c0,0 -1.8125,-3.75 -5.375,-3.75c-2.83203,0 -4.87891,2.00781 -5.5625,2.78125c-0.46875,-0.04297 -0.95312,-0.0625 -1.4375,-0.0625c-0.51953,0 -1.02344,0.03516 -1.53125,0.09375c-0.80469,-0.875 -2.8125,-2.71875 -5.46875,-2.71875c-3.5625,0 -5.375,3.75 -5.375,3.75c-0.23828,0.4375 -0.11719,0.98438 0.28125,1.28125c0,0 1.08594,0.84766 2.625,1.3125c-0.30469,0.27734 -0.59766,0.57422 -0.875,0.875c-1.07812,-0.48437 -3.37891,-1.63281 -4.625,-3.03125c-0.00391,-0.07031 0,-0.12109 0,-0.21875c0.00391,-0.33203 0.02344,-0.78125 0.09375,-1.25c0.13672,-0.94141 0.51953,-2.00391 0.75,-2.28125c0.03516,-0.04297 0.11719,-0.11719 0.25,-0.1875c0.01172,-0.01172 0.01953,-0.01953 0.03125,-0.03125c0.41016,-0.21094 1.21484,-0.46875 2.1875,-0.625c1.32813,-0.21094 2.92969,-0.28125 4.34375,-0.28125c1.25391,0 2.34766,0.35938 3.5,0.78125c1.15234,0.42188 2.375,0.90625 3.8125,0.90625c1.44922,0 2.69922,-0.49219 3.875,-0.9375c1.17578,-0.44531 2.28906,-0.84375 3.53125,-0.84375zM41.625,17h0.9375c0.16797,0.28516 0.4375,0.66016 0.4375,1c0,0.01953 0,0.04297 0,0.0625c-0.03125,0.32422 -0.28125,0.66797 -0.4375,0.9375h-0.59375c-0.03125,-0.44531 -0.11719,-0.93359 -0.21875,-1.4375c-0.03906,-0.1875 -0.08203,-0.375 -0.125,-0.5625zM32,17.59375c1.44141,0 2.41406,1.125 3,1.90625c-0.49609,0.26172 -1.125,0.52734 -1.78125,0.65625c0.05078,-0.14062 0.09375,-0.3125 0.09375,-0.46875c0,-0.71875 -0.59375,-1.28125 -1.3125,-1.28125c-0.64062,0 -1.17187,0.45313 -1.28125,1.0625c-0.55078,-0.23828 -1.12891,-0.46094 -1.71875,-0.625c0.81641,-0.62109 1.91406,-1.25 3,-1.25zM18,17.6875c1.06641,0 2.15625,0.60938 2.96875,1.21875c-0.58594,0.17969 -1.13672,0.40625 -1.6875,0.65625c-0.06641,-0.65625 -0.60937,-1.15625 -1.28125,-1.15625c-0.71875,0 -1.3125,0.5625 -1.3125,1.28125c0,0.19531 0.07813,0.39453 0.15625,0.5625c-0.67969,-0.125 -1.33203,-0.38672 -1.84375,-0.65625c0.58594,-0.78125 1.55859,-1.90625 3,-1.90625zM25,20.3125c2.375,0 4.47266,0.59375 6.25,1.65625c0.07422,0.0625 0.16016,0.11719 0.25,0.15625c1.33203,0.84375 2.48047,1.95313 3.375,3.3125c0.17188,0.34766 0.52734,0.5625 0.91406,0.55469c0.38672,-0.00391 0.73438,-0.23437 0.89453,-0.58984c0.16016,-0.35156 0.09766,-0.76562 -0.15234,-1.05859c-0.02734,-0.04297 -0.0625,-0.08203 -0.09375,-0.125c0.49609,-0.24609 1.17969,-0.58203 1.875,-0.96875c0.69531,-0.38672 1.41406,-0.82812 2.03125,-1.28125c0.16016,-0.11719 0.28906,-0.22656 0.4375,-0.34375c2.62109,1.92188 4.21875,4.20703 4.21875,6.6875c0,1.88281 -0.89062,3.66797 -2.5625,5.28125c-1.67187,1.61328 -4.125,3.00781 -7.0625,3.96875c-0.20312,0.07031 -0.37891,0.19922 -0.5,0.375c-2.10937,3.02344 -5.80859,5.0625 -9.875,5.0625c-4.29687,0 -7.75781,-1.92969 -9.875,-4.96875c-0.12109,-0.17578 -0.29687,-0.30469 -0.5,-0.375c-2.94531,-1.01562 -5.39062,-2.41797 -7.0625,-4.03125c-1.67187,-1.61328 -2.5625,-3.375 -2.5625,-5.3125c0,-2.28906 1.43359,-4.73047 4.03125,-6.5625c1.40625,1.35938 3.17969,2.30078 4.34375,2.8125c-0.14453,0.46484 0.06641,0.96094 0.49609,1.18359c0.42969,0.22266 0.95703,0.10547 1.25391,-0.27734c0.125,-0.17969 0.26953,-0.35547 0.40625,-0.53125c0.03516,-0.02734 0.06641,-0.05859 0.09375,-0.09375c0.00781,-0.01172 0.02344,-0.01953 0.03125,-0.03125c0.07422,-0.07422 0.13672,-0.15625 0.1875,-0.25c1.78906,-2.08594 4.36719,-3.58594 7.25,-4.0625c0.14063,-0.00391 0.27734,-0.03516 0.40625,-0.09375c0.49219,-0.0625 0.99219,-0.09375 1.5,-0.09375zM34,29.96875c-0.76172,-0.03516 -1.48828,0.3125 -2.3125,0.9375c-5.76562,4.50391 -15.25,0.1875 -15.25,0.1875c-0.5,-0.24219 -1.10156,-0.03125 -1.34375,0.46875c-0.24219,0.5 -0.03125,1.10156 0.46875,1.34375c0,0 10.30859,5.08984 17.34375,-0.40625c0.58984,-0.44531 0.88672,-0.49219 0.9375,-0.5c0.10938,0.20703 0.15625,0.9375 0.15625,0.9375c-0.03516,0.55078 0.38672,1.02734 0.9375,1.0625c0.55078,0.03516 1.02734,-0.38672 1.0625,-0.9375c0,0 0.14063,-1.00781 -0.375,-2c-0.25781,-0.49609 -0.86328,-1.05859 -1.625,-1.09375z"></path></g></g></svg>